<?xml version="1.0" encoding="utf-8"?>

<!-- Generator: Adobe Illustrator 17.0.2, SVG Export Plug-In . SVG Version: 6.00 Build 0)  -->
<!DOCTYPE svg PUBLIC "-//W3C//DTD SVG 1.1//EN" "http://www.w3.org/Graphics/SVG/1.1/DTD/svg11.dtd" [
	<!ENTITY ns_extend "http://ns.adobe.com/Extensibility/1.0/">
	<!ENTITY ns_ai "http://ns.adobe.com/AdobeIllustrator/10.0/">
	<!ENTITY ns_graphs "http://ns.adobe.com/Graphs/1.0/">
	<!ENTITY ns_vars "http://ns.adobe.com/Variables/1.0/">
	<!ENTITY ns_imrep "http://ns.adobe.com/ImageReplacement/1.0/">
	<!ENTITY ns_sfw "http://ns.adobe.com/SaveForWeb/1.0/">
	<!ENTITY ns_custom "http://ns.adobe.com/GenericCustomNamespace/1.0/">
	<!ENTITY ns_adobe_xpath "http://ns.adobe.com/XPath/1.0/">
]>
<svg version="1.1" id="Layer_1" xmlns:x="&ns_extend;" xmlns:i="&ns_ai;" xmlns:graph="&ns_graphs;"
	 xmlns="http://www.w3.org/2000/svg" xmlns:xlink="http://www.w3.org/1999/xlink" x="0px" y="0px" width="160.63px"
	 height="59.055px" viewBox="0 0 160.63 59.055" enable-background="new 0 0 160.63 59.055" xml:space="preserve">
<metadata>
	<sfw  xmlns="&ns_sfw;">
		<slices></slices>
		<sliceSourceBounds  width="144.808" height="41.507" y="294.742" x="325.46" bottomLeftOrigin="true"></sliceSourceBounds>
	</sfw>
</metadata>
<g>
	<g>
		<path fill="#FFF"  d="M36.876,26.845c2.246-1.677,4.024-4.255,4.002-8.108V18.63c0.01-3.26-1.338-6.056-3.739-7.939
			C34.743,8.8,31.37,7.796,27.304,7.796H8.578v40.19h19.165c4.447-0.002,8.217-0.891,10.949-2.794
			c2.74-1.898,4.34-4.887,4.322-8.641v-0.11C43.065,31.592,40.589,28.638,36.876,26.845z M30.665,20.161
			c-0.025,1.174-0.406,1.789-1.215,2.322c-0.818,0.52-2.187,0.825-3.955,0.822h-6.869V17.02h7.416
			c1.664-0.003,2.861,0.344,3.574,0.857c0.703,0.521,1.033,1.149,1.049,2.174V20.161z M18.628,32.147h8.84
			c2.059-0.003,3.438,0.392,4.221,0.949c0.775,0.563,1.096,1.236,1.113,2.304v0.109c-0.021,1.187-0.4,1.844-1.182,2.391
			c-0.793,0.537-2.118,0.865-3.877,0.86h-9.115V32.147z"/>
		<path fill="#FFF"  d="M70.309,26.845c2.247-1.677,4.024-4.255,4.001-8.108V18.63c0.01-3.26-1.338-6.056-3.738-7.939
			c-2.396-1.891-5.769-2.895-9.836-2.895H42.011v40.19h19.164c4.449-0.002,8.219-0.891,10.951-2.794
			c2.738-1.898,4.34-4.887,4.319-8.641v-0.11C76.499,31.592,74.02,28.638,70.309,26.845z M64.097,20.161
			c-0.023,1.174-0.404,1.789-1.215,2.322c-0.82,0.52-2.186,0.825-3.953,0.819h-6.871V17.02h7.419
			c1.661-0.003,2.861,0.344,3.571,0.857c0.703,0.521,1.031,1.149,1.049,2.174V20.161z M66.235,35.4v0.109
			c-0.021,1.187-0.4,1.844-1.185,2.391c-0.792,0.537-2.116,0.865-3.876,0.86h-9.117v-6.613h8.844
			c2.057-0.003,3.437,0.392,4.22,0.949C65.894,33.659,66.218,34.332,66.235,35.4z"/>
		<path fill="#FFF"  d="M106.662,13.533c-3.769-3.592-9.108-5.74-15.346-5.739H75.442v40.192h15.885
			c6.236,0,11.572-2.18,15.338-5.799c3.771-3.614,5.957-8.662,5.955-14.298v-0.108C112.622,22.147,110.435,17.124,106.662,13.533z
			 M101.968,27.89v0.109c-0.051,6.354-4.176,10.488-10.651,10.541H85.71V17.239h5.606C97.778,17.287,101.919,21.531,101.968,27.89z"
			/>
		<path fill="#FFF"  d="M147.388,13.176c-3.775-3.74-9.101-6.042-15.25-6.039c-6.146-0.003-11.502,2.327-15.303,6.095
			c-3.801,3.764-6.053,8.964-6.053,14.659v0.109c-0.002,5.692,2.223,10.867,5.998,14.605c3.773,3.739,9.103,6.041,15.249,6.039
			h0.009c6.146,0,11.498-2.33,15.295-6.094c3.801-3.766,6.055-8.965,6.053-14.66v-0.107
			C153.388,22.09,151.163,16.916,147.388,13.176z M121.433,27.782c0.03-6.146,4.321-11.022,10.597-11.036
			c6.269,0.008,10.685,5.01,10.706,11.143v0.109c-0.027,6.144-4.32,11.02-10.598,11.033c-6.267-0.008-10.684-5.009-10.705-11.143
			V27.782z"/>
	</g>
</g>
</svg>
