<svg xmlns="http://www.w3.org/2000/svg" xmlns:xlink="http://www.w3.org/1999/xlink" version="1.1" x="0px" y="0px" viewBox="0 0 150 150" style="enable-background:new 0 0 150 150;" xml:space="preserve">
	<g id="Layer_2" style="display:none;">
		<rect x="-66" y="-37" style="display:inline;opacity:0.43;stroke:#FFFFFF;stroke-miterlimit:10;" width="381" height="240"/>
	</g>
	<g id="Layer_4" style="display:none;">
		<g style="display:inline;">
			<path style="fill:none;stroke:#FFFFFF;stroke-width:2;stroke-miterlimit:10;" d="M-55.6,53.9c0,9.1-7.3,16.4-16.4,16.4l0,0    c-9.1,0-16.4-7.3-16.4-16.4l0,0c0-9.1,7.3-16.4,16.4-16.4l0,0C-62.9,37.5-55.6,44.8-55.6,53.9L-55.6,53.9z"/>
			<path style="fill:none;stroke:#FFFFFF;stroke-width:2;stroke-miterlimit:10;" d="M-98.3,51.4c0,5.8-4.7,10.5-10.5,10.5l0,0    c-5.8,0-10.5-4.7-10.5-10.5l0,0c0-5.8,4.7-10.5,10.5-10.5l0,0C-103,40.9-98.3,45.6-98.3,51.4L-98.3,51.4z"/>
			<path style="fill:none;stroke:#FFFFFF;stroke-width:2;stroke-miterlimit:10;" d="M-24.6,51.4c0,5.8-4.7,10.5-10.5,10.5l0,0    c-5.8,0-10.5-4.7-10.5-10.5l0,0c0-5.8,4.7-10.5,10.5-10.5l0,0C-29.3,40.9-24.6,45.6-24.6,51.4L-24.6,51.4z"/>
			<path style="fill:none;stroke:#FFFFFF;stroke-width:2;stroke-miterlimit:10;" d="M-41.3,109.4L-41.3,109.4    c0-16.9-13.7-30.7-30.7-30.7l0,0c-16.9,0-30.7,13.7-30.7,30.7l0,0H-41.3z"/>
			<path style="fill:none;stroke:#FFFFFF;stroke-width:2;stroke-miterlimit:10;" d="M-89.7,84.3c-2.1-8.7-9.9-15.1-19.2-15.1l0,0    c-10.9,0-19.7,8.8-19.7,19.7l0,0h33.7"/>
			<path style="fill:none;stroke:#FFFFFF;stroke-width:2;stroke-miterlimit:10;" d="M-49.1,88.9h33.7l0,0c0-10.9-8.8-19.7-19.7-19.7    l0,0c-9.3,0-17.1,6.5-19.2,15.1"/>
		</g>
	</g>
	<g id="Layer_1" style="display:none;">
		<path style="display:inline;fill:#FFFFFF;" d="M75,73.5c-11.1,0-20.1-9-20.1-20.1s9-20.1,20.1-20.1s20.1,9,20.1,20.1   S86.1,73.5,75,73.5z M75,37.5c-8.7,0-15.9,7.2-15.9,15.9S66.3,69.3,75,69.3s15.9-7.2,15.9-15.9S83.7,37.5,75,37.5z"/>
		<path style="display:inline;fill:#FFFFFF;" d="M34.5,64.5C27,64.5,21,58.5,21,51s6-13.5,13.5-13.5S48,43.5,48,51   C48,58.2,42,64.5,34.5,64.5z M34.5,41.1c-5.4,0-9.6,4.2-9.6,9.6s4.2,9.6,9.6,9.6s9.6-4.2,9.6-9.6C44.1,45.6,39.6,41.1,34.5,41.1z"/>
		<path style="display:inline;fill:#FFFFFF;" d="M115.5,64.5c-7.5,0-13.5-6-13.5-13.5s6-13.5,13.5-13.5S129,43.5,129,51   C129.3,58.2,123,64.5,115.5,64.5z M115.5,41.1c-5.4,0-9.6,4.2-9.6,9.6s4.2,9.6,9.6,9.6s9.6-4.2,9.6-9.6   C125.1,45.6,120.9,41.1,115.5,41.1z"/>
		<path style="display:inline;fill:#FFFFFF;" d="M139.2,93.9v-2.1c0-13.2-10.5-23.7-23.7-23.7c-10.2,0-18.9,6.6-22.2,15.6l0,0   c-5.4-3.3-11.7-5.1-18.3-5.1s-12.9,1.8-18.3,5.1l0,0c-3.3-9-12-15.6-22.2-15.6c-13.2,0-23.7,10.5-23.7,23.7v2.1h35.1l0,0   c-4.2,5.7-6.6,12.9-6.6,20.4v2.1H111v-2.1c0-7.8-2.4-14.7-6.6-20.7l0,0h34.8V93.9z M15,90c0.9-9.9,9.3-17.7,19.5-17.7   c8.7,0,16.2,5.7,18.9,13.8c-1.5,1.2-3,2.4-4.2,3.6H15V90z M43.2,112.5C44.4,96,58.2,82.8,75,82.8s30.6,13.2,31.8,29.7H43.2z    M96.9,86.1L96.9,86.1c2.4-8.1,9.9-13.8,18.9-13.8c10.2,0,18.6,7.8,19.5,17.7h-34.2C99.6,88.5,98.4,87.3,96.9,86.1z"/>
	</g>
	<g id="Layer_3">
		<polygon style="fill:none;stroke:#FFFFFF;stroke-width:4;stroke-linecap:round;stroke-miterlimit:10;" points="125.2,65.7 74.8,20    24.4,65.7 24.4,126.3 60.8,126.3 60.8,88.3 88.8,88.3 88.8,126.3 125.2,126.3  "/>
	</g>
</svg>