<svg xmlns:x="http://ns.adobe.com/Extensibility/1.0/" xmlns:i="http://ns.adobe.com/AdobeIllustrator/10.0/" xmlns:graph="http://ns.adobe.com/Graphs/1.0/" xmlns="http://www.w3.org/2000/svg" xmlns:xlink="http://www.w3.org/1999/xlink" version="1.1" id="Layer_1" x="0px" y="0px" width="55px" height="55px" viewBox="0 0 55 55" enable-background="new 0 0 55 55" xml:space="preserve">
	<metadata>
		<sfw xmlns="http://ns.adobe.com/SaveForWeb/1.0/">
			<slices/>
			<sliceSourceBounds bottomLeftOrigin="true" x="89.937" y="447.944" height="52.355" width="37.021"/>
		</sfw>
	</metadata>
	<path fill="none" stroke="#FFFFFF" stroke-width="2" stroke-miterlimit="10" d="M26.947,51.224L11.788,27.948  c-1.487-2.574-2.352-5.552-2.352-8.738c0-9.67,7.839-17.509,17.508-17.509c0,0,0.001,0,0.001,0l0,0l0,0h0.001l0,0l0,0  c0,0,0.001,0,0.001,0c9.67,0,17.508,7.839,17.508,17.509c0,3.186-0.864,6.164-2.352,8.738L26.947,51.224z"/>
	<circle fill="#FFFFFF" cx="26.947" cy="19.21" r="6.566"/>
</svg>