<svg xmlns:x="http://ns.adobe.com/Extensibility/1.0/" xmlns:i="http://ns.adobe.com/AdobeIllustrator/10.0/" xmlns:graph="http://ns.adobe.com/Graphs/1.0/" xmlns="http://www.w3.org/2000/svg" xmlns:xlink="http://www.w3.org/1999/xlink" version="1.1" id="Layer_1" x="0px" y="0px" width="55px" height="55px" viewBox="0 0 55 55" enable-background="new 0 0 55 55" xml:space="preserve">
	<metadata>
		<sfw xmlns="http://ns.adobe.com/SaveForWeb/1.0/">
			<slices/>
			<sliceSourceBounds bottomLeftOrigin="true" x="497.843" y="9.143" height="48.232" width="52.813"/>
		</sfw>
	</metadata>
	<rect x="9.093" y="9.75" fill="#FFFFFF" stroke="#FFFFFF" stroke-width="2" stroke-linecap="round" stroke-miterlimit="10" width="27.682" height="10"/>
	<rect x="9.093" y="37.75" fill="#FFFFFF" stroke="#FFFFFF" stroke-width="2" stroke-linecap="round" stroke-miterlimit="10" width="11.389" height="6"/>
	<path fill="none" stroke="#FFFFFF" stroke-width="2" stroke-linecap="round" stroke-miterlimit="10" d="M43.673,41.865V3.75  c0,0-3.238,0-7.236,0H2.093c0,0,0,3.238,0,7.236v1.282v37.714c0,0,3.24,0,7.238,0h43.575c0,0,0-3.24,0-7.236V11.865"/>
	<line fill="none" stroke="#FFFFFF" stroke-width="2" stroke-linecap="round" stroke-miterlimit="10" x1="26.482" y1="37.75" x2="36.775" y2="37.75"/>
	<path fill="none" stroke="#FFFFFF" stroke-width="2" stroke-linecap="round" stroke-miterlimit="10" d="M36.775,36.865"/>
	<path fill="none" stroke="#FFFFFF" stroke-width="2" stroke-linecap="round" stroke-miterlimit="10" d="M26.482,36.865"/>
	<line fill="none" stroke="#FFFFFF" stroke-width="2" stroke-linecap="round" stroke-miterlimit="10" x1="9.093" y1="31.75" x2="36.775" y2="31.75"/>
	<line fill="none" stroke="#FFFFFF" stroke-width="2" stroke-linecap="round" stroke-miterlimit="10" x1="9.093" y1="25.75" x2="36.775" y2="25.75"/>
	<line fill="none" stroke="#FFFFFF" stroke-width="2" stroke-linecap="round" stroke-linejoin="round" stroke-miterlimit="10" x1="48.275" y1="41.865" x2="48.275" y2="11.865"/>
	<line fill="none" stroke="#FFFFFF" stroke-width="2" stroke-linecap="round" stroke-miterlimit="10" x1="26.482" y1="43.75" x2="36.775" y2="43.75"/>
</svg>